<svg width="563.91494140625px" height="129.22519531249998px" xmlns="http://www.w3.org/2000/svg" viewBox="-31.95747070312501 10.387402343750011 563.91494140625 129.22519531249998" style="background:#051103" preserveAspectRatio="xMidYMid"><defs><linearGradient id="editing-glowing-gradient" x1="0.8146601955249185" x2="0.18533980447508147" y1="0.8885729807284856" y2="0.11142701927151444"><stop offset="0" stop-color="#67ff43"></stop><stop offset="1" stop-color="#90ffff"></stop></linearGradient><filter id="editing-glowing" x="-100%" y="-100%" width="300%" height="300%"><feGaussianBlur in="SourceGraphic" result="blur" stdDeviation="10"></feGaussianBlur><feMerge><feMergeNode in="blur"></feMergeNode><feMergeNode in="SourceGraphic"></feMergeNode></feMerge></filter></defs><g filter="url(#editing-glowing)"><g transform="translate(52.07499933242798, 99.53499984741211)"><path d="M3.94 0L11.31-47.81L19.47-47.81L30.34-12.50L32.19-4.88L33.97-12.53L44.47-47.81L52.25-47.81L59.97 0L54.66 0L48.84-36.13L47.97-44.56L46.06-36.06L35.28-0.03L29.13-0.03L17.88-36.25L15.66-44.56L14.59-36.19L9.31 0L3.94 0ZM65.63 0L81.28-47.81L88.56-47.81L105.28 0L99.63 0L94.88-14.03L75.63-14.03L71.13 0L65.63 0ZM77.06-18.50L93.38-18.50L84.94-43.59L83.97-40.03L77.06-18.50ZM114.06 0L114.06-47.81L119.38-47.81L119.38-4.59L138.31-4.59L138.31 0L114.06 0ZM140.31 0L155.97-47.81L163.25-47.81L179.97 0L174.31 0L169.56-14.03L150.31-14.03L145.81 0L140.31 0ZM151.75-18.50L168.06-18.50L159.63-43.59L158.66-40.03L151.75-18.50ZM197.44 0L197.41-17.66L181.81-47.81L187.63-47.81L197.84-27.28L200.16-22L202.44-27.38L212.44-47.81L218.31-47.81L202.72-17.66L202.69 0L197.44 0ZM221.38-3.16L223.44-7.53L223.44-7.53Q230.53-3.78 237.31-3.78L237.31-3.78L237.31-3.78Q245.19-3.78 246.53-8.81L246.53-8.81L246.53-8.81Q246.97-10.47 246.97-12.63L246.97-12.63L246.97-13.84L246.97-13.84Q246.97-16.03 246.66-17.38L246.66-17.38L246.66-17.38Q246.34-18.72 245.34-19.56L245.34-19.56L245.34-19.56Q243.72-20.97 237.66-21.91L237.66-21.91L237.66-21.91Q232.25-22.75 230.19-23.50L230.19-23.50L230.19-23.50Q228.13-24.25 226.80-25.14L226.80-25.14L226.80-25.14Q225.47-26.03 224.53-27.38L224.53-27.38L224.53-27.38Q222.59-30.19 222.59-35.16L222.59-35.16L222.59-35.47L222.59-35.47Q222.59-45.78 231.16-47.81L231.16-47.81L231.16-47.81Q233.88-48.44 237.31-48.44L237.31-48.44L237.72-48.44L237.72-48.44Q245.75-48.44 250.84-46.13L250.84-46.13L249.22-41.34L249.22-41.34Q243.06-44 237.88-44L237.88-44L237.59-44L237.59-44Q231.88-44 229.72-41.84L229.72-41.84L229.72-41.84Q227.91-40.03 227.91-35.56L227.91-35.56L227.91-35.44L227.91-35.44Q227.91-30.34 230.72-28.75L230.72-28.75L230.72-28.75Q232.63-27.72 237.55-26.94L237.55-26.94L237.55-26.94Q242.47-26.16 244.88-25.61L244.88-25.61L244.88-25.61Q247.28-25.06 248.97-23.81L248.97-23.81L248.97-23.81Q252.47-21.19 252.47-13.84L252.47-13.84L252.47-13.44L252.47-13.44Q252.47-2.22 243.44-0.06L243.44-0.06L243.44-0.06Q240.66 0.63 238.19 0.63L238.19 0.63L238.19 0.63Q235.72 0.63 233.70 0.45L233.70 0.45L233.70 0.45Q231.69 0.28 229.59-0.16L229.59-0.16L229.59-0.16Q224.69-1.16 221.38-3.16L221.38-3.16ZM264.06 0L264.06-47.81L269.34-47.81L269.34 0L264.06 0ZM278.91 0L294.56-47.81L301.84-47.81L318.56 0L312.91 0L308.16-14.03L288.91-14.03L284.41 0L278.91 0ZM290.34-18.50L306.66-18.50L298.22-43.59L297.25-40.03L290.34-18.50ZM337.50 0L353.16-47.81L360.44-47.81L377.16 0L371.50 0L366.75-14.03L347.50-14.03L343 0L337.50 0ZM348.94-18.50L365.25-18.50L356.81-43.59L355.84-40.03L348.94-18.50ZM386.63 0L386.63-47.81L391.91-47.81L391.91 0L386.63 0Z" fill="url(#editing-glowing-gradient)"></path></g></g><style>text {
  font-size: 64px;
  font-family: Arial Black;
  dominant-baseline: central;
  text-anchor: middle;
}</style></svg>